solid servobase
facet normal -1.0 0.0 0.0
  outer loop
    vertex 3.848999977111816 -44.400001525878906 1.9999999999999998
    vertex 3.848999977111816 -60.40100097656249 1.9999999999999998
    vertex 3.848999977111816 -44.400001525878906 14.001000404357908
  endloop
endfacet
facet normal -1.0 0.0 0.0
  outer loop
    vertex 3.848999977111816 -44.400001525878906 14.001000404357908
    vertex 3.848999977111816 -60.40100097656249 1.9999999999999998
    vertex 3.848999977111816 -60.40100097656249 14.001000404357908
  endloop
endfacet
facet normal -1.0 0.0 0.0
  outer loop
    vertex 8.949999809265137 22.300001525878905 14.001000404357908
    vertex 8.949999809265137 17.39900054931641 1.9999999999999998
    vertex 8.949999809265137 17.39900054931641 14.001000404357908
  endloop
endfacet
facet normal -1.0 0.0 0.0
  outer loop
    vertex 8.949999809265137 22.300001525878905 1.9999999999999998
    vertex 8.949999809265137 17.39900054931641 1.9999999999999998
    vertex 8.949999809265137 22.300001525878905 14.001000404357908
  endloop
endfacet
facet normal 0.0 -1.0 0.0
  outer loop
    vertex 8.850000381469727 -11.401000595092775 1.9999999999999998
    vertex 8.850000381469727 -11.401000595092775 -0.0010000000474974513
    vertex 8.949999809265137 -11.401000595092775 1.9999999999999998
  endloop
endfacet
facet normal -1.0 0.0 0.0
  outer loop
    vertex 8.949999809265137 -6.398999786376951 14.001000404357908
    vertex 8.949999809265137 -11.401000595092775 1.9999999999999998
    vertex 8.949999809265137 -11.401000595092775 14.001000404357908
  endloop
endfacet
facet normal -1.0 0.0 0.0
  outer loop
    vertex 8.949999809265137 -6.398999786376951 1.9999999999999998
    vertex 8.949999809265137 -11.401000595092775 1.9999999999999998
    vertex 8.949999809265137 -6.398999786376951 14.001000404357908
  endloop
endfacet
facet normal 1.0 -0.0 -0.0
  outer loop
    vertex 24.951000213623043 22.300001525878905 -0.0010000000474974513
    vertex 24.951000213623043 17.39900054931641 1.9999999999999998
    vertex 24.951000213623043 -6.398999786376951 1.9999999999999998
  endloop
endfacet
facet normal 0.0 -1.0 0.0
  outer loop
    vertex 8.949999809265137 -11.401000595092775 1.9999999999999998
    vertex 8.850000381469727 -11.401000595092775 -0.0010000000474974513
    vertex 24.951000213623043 -11.401000595092775 -0.0010000000474974513
  endloop
endfacet
facet normal -0.0 1.0 -0.0
  outer loop
    vertex 8.949999809265137 22.300001525878905 1.9999999999999998
    vertex 8.048999786376951 22.300001525878905 -0.0010000000474974513
    vertex 8.048999786376951 22.300001525878905 1.9999999999999998
  endloop
endfacet
facet normal 0.0 0.0 -1.0
  outer loop
    vertex 24.951000213623043 -11.401000595092775 -0.0010000000474974513
    vertex 8.850000381469727 -11.401000595092775 -0.0010000000474974513
    vertex 24.951000213623043 22.300001525878905 -0.0010000000474974513
  endloop
endfacet
facet normal 0.0 0.0 -1.0
  outer loop
    vertex 24.951000213623043 22.300001525878905 -0.0010000000474974513
    vertex 8.850000381469727 -11.401000595092775 -0.0010000000474974513
    vertex 8.048999786376951 22.199999237060542 -0.0010000000474974513
  endloop
endfacet
facet normal 1.0 -0.0 -0.0
  outer loop
    vertex 24.951000213623043 22.300001525878905 14.001000404357908
    vertex 24.951000213623043 17.39900054931641 14.001000404357908
    vertex 24.951000213623043 17.39900054931641 1.9999999999999998
  endloop
endfacet
facet normal 1.0 -0.0 -0.0
  outer loop
    vertex 24.951000213623043 22.300001525878905 14.001000404357908
    vertex 24.951000213623043 17.39900054931641 1.9999999999999998
    vertex 24.951000213623043 22.300001525878905 -0.0010000000474974513
  endloop
endfacet
facet normal 1.0 -0.0 -0.0
  outer loop
    vertex 24.951000213623043 22.300001525878905 -0.0010000000474974513
    vertex 24.951000213623043 -6.398999786376951 1.9999999999999998
    vertex 24.951000213623043 -11.401000595092775 -0.0010000000474974513
  endloop
endfacet
facet normal 1.0 -0.0 -0.0
  outer loop
    vertex 24.951000213623043 -6.398999786376951 1.9999999999999998
    vertex 24.951000213623043 -11.401000595092775 14.001000404357908
    vertex 24.951000213623043 -11.401000595092775 -0.0010000000474974513
  endloop
endfacet
facet normal 1.0 -0.0 -0.0
  outer loop
    vertex 24.951000213623043 -6.398999786376951 14.001000404357908
    vertex 24.951000213623043 -11.401000595092775 14.001000404357908
    vertex 24.951000213623043 -6.398999786376951 1.9999999999999998
  endloop
endfacet
facet normal 0.0 0.0 -1.0
  outer loop
    vertex 24.951000213623043 22.300001525878905 -0.0010000000474974513
    vertex 8.048999786376951 22.199999237060542 -0.0010000000474974513
    vertex 8.048999786376951 22.300001525878905 -0.0010000000474974513
  endloop
endfacet
facet normal 1.0 -0.0 -0.0
  outer loop
    vertex -13.449000358581543 -27.399000167846676 12.001000404357908
    vertex -13.449000358581543 -32.40100097656249 12.001000404357908
    vertex -13.449000358581543 -27.402999877929684 1.9999999999999998
  endloop
endfacet
facet normal -0.0 1.0 -0.0
  outer loop
    vertex 24.951000213623043 22.300001525878905 14.001000404357908
    vertex 24.951000213623043 22.300001525878905 -0.0010000000474974513
    vertex 8.949999809265137 22.300001525878905 1.9999999999999998
  endloop
endfacet
facet normal -0.0 1.0 -0.0
  outer loop
    vertex 8.949999809265137 22.300001525878905 1.9999999999999998
    vertex 24.951000213623043 22.300001525878905 -0.0010000000474974513
    vertex 8.048999786376951 22.300001525878905 -0.0010000000474974513
  endloop
endfacet
facet normal -0.0 1.0 -0.0
  outer loop
    vertex 24.951000213623043 22.300001525878905 14.001000404357908
    vertex 8.949999809265137 22.300001525878905 1.9999999999999998
    vertex 8.949999809265137 22.300001525878905 14.001000404357908
  endloop
endfacet
facet normal -0.0 1.0 -0.0
  outer loop
    vertex -13.449000358581543 -27.399000167846676 12.001000404357908
    vertex -24.950000762939453 -27.399000167846676 0.0
    vertex -24.950000762939453 -27.399000167846676 12.001000404357908
  endloop
endfacet
facet normal -0.9999999991127135 3.0504693193985687e-05 -2.90523118972011e-05
  outer loop
    vertex -24.951000213623047 -44.400001525878906 14.001000404357908
    vertex -24.951000213623047 -44.400001525878906 0.0
    vertex -24.951000213623047 -60.40100097656249 0.0
  endloop
endfacet
facet normal -0.9999999991127135 3.0504693193985687e-05 -2.90523118972011e-05
  outer loop
    vertex -24.951000213623047 -44.400001525878906 0.0
    vertex -24.951000213623047 -44.400001525878906 14.001000404357908
    vertex -24.950000762939453 -44.400001525878906 1.9999999999999998
  endloop
endfacet
facet normal -1.0 0.0 0.0
  outer loop
    vertex -24.951000213623047 -44.400001525878906 14.001000404357908
    vertex -24.951000213623047 -60.40100097656249 0.0
    vertex -24.951000213623047 -60.40100097656249 14.001000404357908
  endloop
endfacet
facet normal -0.0 -0.0 1.0
  outer loop
    vertex 8.949999809265137 -6.398999786376951 1.9999999999999998
    vertex 1.2499999999999998 -6.699000930786132 1.9999999999999998
    vertex 8.850000381469727 -11.401000595092775 1.9999999999999998
  endloop
endfacet
facet normal -0.0 -0.0 1.0
  outer loop
    vertex 8.949999809265137 17.39900054931641 1.9999999999999998
    vertex 1.2499999999999998 -6.699000930786132 1.9999999999999998
    vertex 8.949999809265137 -6.398999786376951 1.9999999999999998
  endloop
endfacet
facet normal -0.0 -0.0 1.0
  outer loop
    vertex 8.949999809265137 -6.398999786376951 1.9999999999999998
    vertex 8.850000381469727 -11.401000595092775 1.9999999999999998
    vertex 8.949999809265137 -11.401000595092775 1.9999999999999998
  endloop
endfacet
facet normal -0.0 -0.0 1.0
  outer loop
    vertex 8.949999809265137 17.39900054931641 1.9999999999999998
    vertex 8.048999786376951 22.199999237060542 1.9999999999999998
    vertex -24.95000076293945 22.199999237060542 1.9999999999999998
  endloop
endfacet
facet normal -0.0 -0.0 1.0
  outer loop
    vertex 8.949999809265137 22.300001525878905 1.9999999999999998
    vertex 8.048999786376951 22.199999237060542 1.9999999999999998
    vertex 8.949999809265137 17.39900054931641 1.9999999999999998
  endloop
endfacet
facet normal -0.0 -0.0 1.0
  outer loop
    vertex 8.949999809265137 22.300001525878905 1.9999999999999998
    vertex 8.048999786376951 22.300001525878905 1.9999999999999998
    vertex 8.048999786376951 22.199999237060542 1.9999999999999998
  endloop
endfacet
facet normal -0.9999999874633551 5.878775314554675e-05 0.00014702819438830537
  outer loop
    vertex -24.950000762939453 -27.399000167846676 0.0
    vertex -24.951000213623047 -44.400001525878906 0.0
    vertex -24.950000762939453 -32.40100097656249 1.9999999999999998
  endloop
endfacet
facet normal -1.0 0.0 0.0
  outer loop
    vertex 8.048999786376951 22.300001525878905 -0.0010000000474974513
    vertex 8.048999786376951 22.199999237060542 -0.0010000000474974513
    vertex 8.048999786376951 22.300001525878905 1.9999999999999998
  endloop
endfacet
facet normal -1.0 0.0 0.0
  outer loop
    vertex 8.048999786376951 22.300001525878905 1.9999999999999998
    vertex 8.048999786376951 22.199999237060542 -0.0010000000474974513
    vertex 8.048999786376951 22.199999237060542 1.9999999999999998
  endloop
endfacet
facet normal 1.4781002050049214e-06 -3.1665629911645925e-05 -0.9999999994975517
  outer loop
    vertex -6.411588209174613 -28.283003234547362 -0.0009896335218145238
    vertex -24.951000213623047 -60.40100097656249 0.0
    vertex -13.425000190734853 -28.283003234863436 -0.0010000000474974513
  endloop
endfacet
facet normal 0.0 0.0 -1.0
  outer loop
    vertex -13.425000190734863 -11.70099983215332 -0.0010000000474974513
    vertex -24.95000076293945 -11.70099983215332 -0.0010000000474974513
    vertex -24.95000076293945 22.199999237060542 -0.0010000000474974513
  endloop
endfacet
facet normal 0.0 0.0 -1.0
  outer loop
    vertex 1.2499999999999998 -11.70099983215332 0.0
    vertex -6.02077579498291 -11.70099983215332 0.0
    vertex -6.020772457122802 -11.49699935913086 0.0
  endloop
endfacet
facet normal 0.0 0.0 -1.0
  outer loop
    vertex 1.2499999999999998 -11.70099983215332 0.0
    vertex -6.020772457122802 -11.49699935913086 0.0
    vertex 1.2499999999999998 -11.49699935913086 0.0
  endloop
endfacet
facet normal -1.0 0.0 0.0
  outer loop
    vertex -24.95000076293945 -6.699000930786132 1.9999999999999998
    vertex -24.95000076293945 -11.70099983215332 -0.0010000000474974513
    vertex -24.95000076293945 -11.70099983215332 12.001000404357908
  endloop
endfacet
facet normal -1.0 0.0 0.0
  outer loop
    vertex -24.95000076293945 22.199999237060542 -0.0010000000474974513
    vertex -24.95000076293945 -11.70099983215332 -0.0010000000474974513
    vertex -24.95000076293945 -6.699000930786132 1.9999999999999998
  endloop
endfacet
facet normal -0.0 -0.0 1.0
  outer loop
    vertex 24.951000213623043 17.39900054931641 14.001000404357908
    vertex 8.949999809265137 22.300001525878905 14.001000404357908
    vertex 8.949999809265137 17.39900054931641 14.001000404357908
  endloop
endfacet
facet normal -0.0 -0.0 1.0
  outer loop
    vertex 24.951000213623043 22.300001525878905 14.001000404357908
    vertex 8.949999809265137 22.300001525878905 14.001000404357908
    vertex 24.951000213623043 17.39900054931641 14.001000404357908
  endloop
endfacet
facet normal -1.0 0.0 0.0
  outer loop
    vertex -24.95000076293945 22.199999237060542 -0.0010000000474974513
    vertex -24.95000076293945 -6.699000930786132 1.9999999999999998
    vertex -24.95000076293945 22.199999237060542 1.9999999999999998
  endloop
endfacet
facet normal -0.0 1.0 -0.0
  outer loop
    vertex 8.048999786376951 22.199999237060542 1.9999999999999998
    vertex -24.95000076293945 22.199999237060542 -0.0010000000474974513
    vertex -24.95000076293945 22.199999237060542 1.9999999999999998
  endloop
endfacet
facet normal -0.0 1.0 -0.0
  outer loop
    vertex 8.048999786376951 22.199999237060542 1.9999999999999998
    vertex 8.048999786376951 22.199999237060542 -0.0010000000474974513
    vertex -24.95000076293945 22.199999237060542 -0.0010000000474974513
  endloop
endfacet
facet normal -0.0 -0.0 1.0
  outer loop
    vertex 24.951000213623043 17.39900054931641 1.9999999999999998
    vertex 8.949999809265137 17.39900054931641 1.9999999999999998
    vertex 8.949999809265137 -6.398999786376951 1.9999999999999998
  endloop
endfacet
facet normal -0.0 -0.0 1.0
  outer loop
    vertex 24.951000213623043 17.39900054931641 1.9999999999999998
    vertex 8.949999809265137 -6.398999786376951 1.9999999999999998
    vertex 24.951000213623043 -6.398999786376951 1.9999999999999998
  endloop
endfacet
facet normal -0.0 1.0 -0.0
  outer loop
    vertex 8.85099983215332 -44.400001525878906 14.001000404357908
    vertex 8.850000381469727 -44.400001525878906 1.9999999999999998
    vertex 3.848999977111816 -44.400001525878906 14.001000404357908
  endloop
endfacet
facet normal -0.0 1.0 -0.0
  outer loop
    vertex 3.848999977111816 -44.400001525878906 14.001000404357908
    vertex 8.850000381469727 -44.400001525878906 1.9999999999999998
    vertex 3.848999977111816 -44.400001525878906 1.9999999999999998
  endloop
endfacet
facet normal -2.436732670571612e-19 -3.069953810621741e-05 -0.9999999995287692
  outer loop
    vertex -6.411588209174613 -28.283003234547362 -0.0009896335218145238
    vertex 8.850000381469727 -60.40100097656249 0.0
    vertex -24.951000213623047 -60.40100097656249 0.0
  endloop
endfacet
facet normal -2.436732670571612e-19 -3.069953810621741e-05 -0.9999999995287692
  outer loop
    vertex 8.850000381469727 -60.40100097656249 0.0
    vertex -6.411588209174613 -28.283003234547362 -0.0009896335218145238
    vertex -5.710790360901987 -28.283003234547362 -0.000989633521814529
  endloop
endfacet
facet normal 0.000133804690578846 4.548830942523069e-05 -0.9999999900135593
  outer loop
    vertex -6.020772457122802 -11.49699935913086 0.0
    vertex -13.425000190734863 -11.70099983215332 -0.0010000000474974513
    vertex -24.95000076293945 22.199999237060542 -0.0010000000474974513
  endloop
endfacet
facet normal -1.710812471808153e-21 -2.9676234938328806e-05 -0.9999999995596607
  outer loop
    vertex 8.048999786376951 22.199999237060542 -0.0010000000474974513
    vertex -6.020772457122802 -11.49699935913086 0.0
    vertex -24.95000076293945 22.199999237060542 -0.0010000000474974513
  endloop
endfacet
facet normal -0.0 -0.0 1.0
  outer loop
    vertex -8.235031547546377 -27.603000640869418 1.9999999999999998
    vertex -13.425000190734853 -27.603000640869418 1.9999999999999998
    vertex -13.449000358581543 -32.40100097656249 1.9999999999999998
  endloop
endfacet
facet normal 0.0 -1.0 0.0
  outer loop
    vertex 8.949999809265137 17.39900054931641 14.001000404357908
    vertex 8.949999809265137 17.39900054931641 1.9999999999999998
    vertex 24.951000213623043 17.39900054931641 1.9999999999999998
  endloop
endfacet
facet normal 0.0 -1.0 0.0
  outer loop
    vertex 8.949999809265137 17.39900054931641 14.001000404357908
    vertex 24.951000213623043 17.39900054931641 1.9999999999999998
    vertex 24.951000213623043 17.39900054931641 14.001000404357908
  endloop
endfacet
facet normal -0.0 -0.0 1.0
  outer loop
    vertex 1.2499999999999998 -6.699000930786132 1.9999999999999998
    vertex -24.95000076293945 22.199999237060542 1.9999999999999998
    vertex -24.95000076293945 -6.699000930786132 1.9999999999999998
  endloop
endfacet
facet normal -0.0 -0.0 1.0
  outer loop
    vertex 8.949999809265137 17.39900054931641 1.9999999999999998
    vertex -24.95000076293945 22.199999237060542 1.9999999999999998
    vertex 1.2499999999999998 -6.699000930786132 1.9999999999999998
  endloop
endfacet
facet normal -0.9999998751373149 -1.4348161722209045e-20 0.0004997252793993831
  outer loop
    vertex -24.950000762939453 -32.40100097656249 1.9999999999999998
    vertex -24.951000213623047 -44.400001525878906 0.0
    vertex -24.950000762939453 -44.400001525878906 1.9999999999999998
  endloop
endfacet
facet normal 1.1135530506044021e-05 -3.072586936703218e-05 -0.9999999994659605
  outer loop
    vertex 8.850000381469727 -27.60300064086914 -0.0010000000474974513
    vertex -5.710790360901987 -28.283003234547362 -0.000989633521814529
    vertex -6.019071578979491 -27.60300064086914 -0.0010000000474974513
  endloop
endfacet
facet normal 1.1135530506044021e-05 -3.072586936703218e-05 -0.9999999994659605
  outer loop
    vertex -5.710790360901987 -28.283003234547362 -0.000989633521814529
    vertex 8.850000381469727 -27.60300064086914 -0.0010000000474974513
    vertex 8.850000381469727 -60.40100097656249 0.0
  endloop
endfacet
facet normal 1.1135530506044021e-05 -3.072586936703218e-05 -0.9999999994659605
  outer loop
    vertex 8.850000381469727 -60.40100097656249 0.0
    vertex 8.850000381469727 -27.60300064086914 -0.0010000000474974513
    vertex 8.850000381469727 -44.400001525878906 0.0
  endloop
endfacet
facet normal -0.0 1.0 -0.0
  outer loop
    vertex 1.2499999999999998 -6.699000930786132 12.001000404357908
    vertex 1.2499999999999998 -6.699000930786132 1.9999999999999998
    vertex -24.95000076293945 -6.699000930786132 12.001000404357908
  endloop
endfacet
facet normal -0.0 1.0 -0.0
  outer loop
    vertex -24.95000076293945 -6.699000930786132 12.001000404357908
    vertex 1.2499999999999998 -6.699000930786132 1.9999999999999998
    vertex -24.95000076293945 -6.699000930786132 1.9999999999999998
  endloop
endfacet
facet normal -1.0 0.0 0.0
  outer loop
    vertex -24.950000762939453 -27.399000167846676 12.001000404357908
    vertex -24.950000762939453 -32.40100097656249 1.9999999999999998
    vertex -24.950000762939453 -32.40100097656249 12.001000404357908
  endloop
endfacet
facet normal -1.0 0.0 0.0
  outer loop
    vertex -24.950000762939453 -27.399000167846676 0.0
    vertex -24.950000762939453 -32.40100097656249 1.9999999999999998
    vertex -24.950000762939453 -27.399000167846676 12.001000404357908
  endloop
endfacet
facet normal -0.0 -0.0 1.0
  outer loop
    vertex -13.449000358581543 -32.40100097656249 1.9999999999999998
    vertex -24.950000762939453 -32.40100097656249 1.9999999999999998
    vertex -19.948999404907227 -44.400001525878906 1.9999999999999998
  endloop
endfacet
facet normal -0.0 -0.0 1.0
  outer loop
    vertex -19.948999404907227 -44.400001525878906 1.9999999999999998
    vertex -24.950000762939453 -32.40100097656249 1.9999999999999998
    vertex -24.950000762939453 -44.400001525878906 1.9999999999999998
  endloop
endfacet
facet normal 0.0 -1.0 0.0
  outer loop
    vertex 3.848999977111816 -60.40100097656249 14.001000404357908
    vertex 3.848999977111816 -60.40100097656249 1.9999999999999998
    vertex 8.85099983215332 -60.40100097656249 14.001000404357908
  endloop
endfacet
facet normal 0.0 -1.0 0.0
  outer loop
    vertex 8.85099983215332 -60.40100097656249 14.001000404357908
    vertex 3.848999977111816 -60.40100097656249 1.9999999999999998
    vertex 8.850000381469727 -60.40100097656249 0.0
  endloop
endfacet
facet normal -0.0 -0.0 1.0
  outer loop
    vertex 3.848999977111816 -44.400001525878906 1.9999999999999998
    vertex -13.449000358581543 -32.40100097656249 1.9999999999999998
    vertex -19.948999404907227 -44.400001525878906 1.9999999999999998
  endloop
endfacet
facet normal -0.0 -0.0 1.0
  outer loop
    vertex 3.848999977111816 -44.400001525878906 1.9999999999999998
    vertex -19.948999404907227 -44.400001525878906 1.9999999999999998
    vertex 3.848999977111816 -60.40100097656249 1.9999999999999998
  endloop
endfacet
facet normal -1.0 0.0 0.0
  outer loop
    vertex -24.95000076293945 -6.699000930786132 1.9999999999999998
    vertex -24.95000076293945 -11.70099983215332 12.001000404357908
    vertex -24.95000076293945 -6.699000930786132 12.001000404357908
  endloop
endfacet
facet normal -0.0 1.0 -0.0
  outer loop
    vertex -19.948999404907227 -44.400001525878906 14.001000404357908
    vertex -19.948999404907227 -44.400001525878906 1.9999999999999998
    vertex -24.950000762939453 -44.400001525878906 1.9999999999999998
  endloop
endfacet
facet normal -0.0 1.0 -0.0
  outer loop
    vertex -19.948999404907227 -44.400001525878906 14.001000404357908
    vertex -24.950000762939453 -44.400001525878906 1.9999999999999998
    vertex -24.951000213623047 -44.400001525878906 14.001000404357908
  endloop
endfacet
facet normal -0.0 1.0 -0.0
  outer loop
    vertex 24.951000213623043 -6.398999786376951 14.001000404357908
    vertex 24.951000213623043 -6.398999786376951 1.9999999999999998
    vertex 8.949999809265137 -6.398999786376951 14.001000404357908
  endloop
endfacet
facet normal -0.0 1.0 -0.0
  outer loop
    vertex 8.949999809265137 -6.398999786376951 14.001000404357908
    vertex 24.951000213623043 -6.398999786376951 1.9999999999999998
    vertex 8.949999809265137 -6.398999786376951 1.9999999999999998
  endloop
endfacet
facet normal 0.9999999974521456 -0.0 -7.138423342497232e-05
  outer loop
    vertex 8.85099983215332 -44.400001525878906 14.001000404357908
    vertex 8.85099983215332 -60.40100097656249 14.001000404357908
    vertex 8.850000381469727 -60.40100097656249 0.0
  endloop
endfacet
facet normal 0.9999999971377933 4.357501928832113e-06 -7.553426711452691e-05
  outer loop
    vertex 8.850000381469727 -44.400001525878906 0.0
    vertex 8.85099983215332 -44.400001525878906 14.001000404357908
    vertex 8.850000381469727 -60.40100097656249 0.0
  endloop
endfacet
facet normal 0.9999999971377933 4.357501928832113e-06 -7.553426711452691e-05
  outer loop
    vertex 8.85099983215332 -44.400001525878906 14.001000404357908
    vertex 8.850000381469727 -44.400001525878906 0.0
    vertex 8.850000381469727 -44.400001525878906 1.9999999999999998
  endloop
endfacet
facet normal -0.0 -0.0 1.0
  outer loop
    vertex 3.848999977111816 -44.400001525878906 1.9999999999999998
    vertex -8.235031547546377 -27.603000640869418 1.9999999999999998
    vertex -13.449000358581543 -32.40100097656249 1.9999999999999998
  endloop
endfacet
facet normal -0.0 -0.0 1.0
  outer loop
    vertex 24.951000213623043 -11.401000595092775 14.001000404357908
    vertex 8.949999809265137 -6.398999786376951 14.001000404357908
    vertex 8.949999809265137 -11.401000595092775 14.001000404357908
  endloop
endfacet
facet normal -0.0 -0.0 1.0
  outer loop
    vertex 24.951000213623043 -6.398999786376951 14.001000404357908
    vertex 8.949999809265137 -6.398999786376951 14.001000404357908
    vertex 24.951000213623043 -11.401000595092775 14.001000404357908
  endloop
endfacet
facet normal -0.0 -0.0 1.0
  outer loop
    vertex 3.848999977111816 -60.40100097656249 1.9999999999999998
    vertex -19.948999404907227 -44.400001525878906 1.9999999999999998
    vertex -19.948999404907227 -60.40100097656249 1.9999999999999998
  endloop
endfacet
facet normal -0.0 -0.0 1.0
  outer loop
    vertex 8.85099983215332 -60.40100097656249 14.001000404357908
    vertex 3.848999977111816 -44.400001525878906 14.001000404357908
    vertex 3.848999977111816 -60.40100097656249 14.001000404357908
  endloop
endfacet
facet normal -0.0 -0.0 1.0
  outer loop
    vertex 8.85099983215332 -44.400001525878906 14.001000404357908
    vertex 3.848999977111816 -44.400001525878906 14.001000404357908
    vertex 8.85099983215332 -60.40100097656249 14.001000404357908
  endloop
endfacet
facet normal -6.773110325869002e-05 -0.0016598375991737462 -0.9999986201748691
  outer loop
    vertex 8.850000381469727 -11.401000595092775 -0.0010000000474974513
    vertex 1.2499999999999998 -11.49699935913086 0.0
    vertex -6.020772457122802 -11.49699935913086 0.0
  endloop
endfacet
facet normal -6.773110325869002e-05 -0.0016598375991737462 -0.9999986201748691
  outer loop
    vertex 1.2499999999999998 -11.49699935913086 0.0
    vertex 8.850000381469727 -11.401000595092775 -0.0010000000474974513
    vertex 8.850000381469727 -11.49699935913086 -0.0010000000474974513
  endloop
endfacet
facet normal -6.723565674296421e-05 -1.6028035276209928e-06 -0.9999999977383989
  outer loop
    vertex 8.850000381469727 -11.401000595092775 -0.0010000000474974513
    vertex -6.020772457122802 -11.49699935913086 0.0
    vertex 8.048999786376951 22.199999237060542 -0.0010000000474974513
  endloop
endfacet
facet normal 0.0 -1.0 0.0
  outer loop
    vertex 24.951000213623043 -11.401000595092775 14.001000404357908
    vertex 8.949999809265137 -11.401000595092775 1.9999999999999998
    vertex 24.951000213623043 -11.401000595092775 -0.0010000000474974513
  endloop
endfacet
facet normal 0.0 -1.0 0.0
  outer loop
    vertex 8.949999809265137 -11.401000595092775 14.001000404357908
    vertex 8.949999809265137 -11.401000595092775 1.9999999999999998
    vertex 24.951000213623043 -11.401000595092775 14.001000404357908
  endloop
endfacet
facet normal 1.0 -0.0 -0.0
  outer loop
    vertex -19.948999404907227 -44.400001525878906 14.001000404357908
    vertex -19.948999404907227 -60.40100097656249 1.9999999999999998
    vertex -19.948999404907227 -44.400001525878906 1.9999999999999998
  endloop
endfacet
facet normal 0.0 -1.0 0.0
  outer loop
    vertex -19.948999404907227 -60.40100097656249 1.9999999999999998
    vertex -24.951000213623047 -60.40100097656249 0.0
    vertex 8.850000381469727 -60.40100097656249 0.0
  endloop
endfacet
facet normal 1.0 -0.0 -0.0
  outer loop
    vertex 8.850000381469727 -27.60300064086914 1.9999999999999998
    vertex 8.850000381469727 -44.400001525878906 1.9999999999999998
    vertex 8.850000381469727 -44.400001525878906 0.0
  endloop
endfacet
facet normal 1.0 -0.0 -0.0
  outer loop
    vertex 8.850000381469727 -27.60300064086914 1.9999999999999998
    vertex 8.850000381469727 -44.400001525878906 0.0
    vertex 8.850000381469727 -27.60300064086914 -0.0010000000474974513
  endloop
endfacet
facet normal 0.0 -1.0 0.0
  outer loop
    vertex -24.950000762939453 -32.40100097656249 12.001000404357908
    vertex -24.950000762939453 -32.40100097656249 1.9999999999999998
    vertex -13.449000358581543 -32.40100097656249 1.9999999999999998
  endloop
endfacet
facet normal 0.0 -1.0 0.0
  outer loop
    vertex -24.950000762939453 -32.40100097656249 12.001000404357908
    vertex -13.449000358581543 -32.40100097656249 1.9999999999999998
    vertex -13.449000358581543 -32.40100097656249 12.001000404357908
  endloop
endfacet
facet normal 1.0 -0.0 -0.0
  outer loop
    vertex 1.2499999999999998 -6.699000930786132 12.001000404357908
    vertex 1.2499999999999998 -11.49699935913086 1.9999999999999998
    vertex 1.2499999999999998 -6.699000930786132 1.9999999999999998
  endloop
endfacet
facet normal 1.0 -0.0 -0.0
  outer loop
    vertex 1.2499999999999998 -6.699000930786132 12.001000404357908
    vertex 1.2499999999999998 -11.70099983215332 12.001000404357908
    vertex 1.2499999999999998 -11.49699935913086 1.9999999999999998
  endloop
endfacet
facet normal 1.0 -0.0 -0.0
  outer loop
    vertex 8.850000381469727 -11.401000595092775 1.9999999999999998
    vertex 8.850000381469727 -11.49699935913086 1.9999999999999998
    vertex 8.850000381469727 -11.49699935913086 -0.0010000000474974513
  endloop
endfacet
facet normal 1.0 -0.0 -0.0
  outer loop
    vertex 8.850000381469727 -11.401000595092775 1.9999999999999998
    vertex 8.850000381469727 -11.49699935913086 -0.0010000000474974513
    vertex 8.850000381469727 -11.401000595092775 -0.0010000000474974513
  endloop
endfacet
facet normal 1.0 -0.0 -0.0
  outer loop
    vertex 1.2499999999999998 -11.49699935913086 1.9999999999999998
    vertex 1.2499999999999998 -11.70099983215332 0.0
    vertex 1.2499999999999998 -11.49699935913086 0.0
  endloop
endfacet
facet normal 1.0 -0.0 -0.0
  outer loop
    vertex 1.2499999999999998 -11.49699935913086 1.9999999999999998
    vertex 1.2499999999999998 -11.70099983215332 12.001000404357908
    vertex 1.2499999999999998 -11.70099983215332 0.0
  endloop
endfacet
facet normal -0.0 -0.0 1.0
  outer loop
    vertex 8.850000381469727 -27.60300064086914 1.9999999999999998
    vertex 3.848999977111816 -44.400001525878906 1.9999999999999998
    vertex 8.850000381469727 -44.400001525878906 1.9999999999999998
  endloop
endfacet
facet normal 0.0 -1.0 0.0
  outer loop
    vertex -24.951000213623047 -60.40100097656249 14.001000404357908
    vertex -24.951000213623047 -60.40100097656249 0.0
    vertex -19.948999404907227 -60.40100097656249 1.9999999999999998
  endloop
endfacet
facet normal 0.0 -1.0 0.0
  outer loop
    vertex -24.951000213623047 -60.40100097656249 14.001000404357908
    vertex -19.948999404907227 -60.40100097656249 1.9999999999999998
    vertex -19.948999404907227 -60.40100097656249 14.001000404357908
  endloop
endfacet
facet normal -0.0 -0.0 1.0
  outer loop
    vertex 8.850000381469727 -11.401000595092775 1.9999999999999998
    vertex 1.2499999999999998 -11.49699935913086 1.9999999999999998
    vertex 8.850000381469727 -11.49699935913086 1.9999999999999998
  endloop
endfacet
facet normal -0.0 -0.0 1.0
  outer loop
    vertex 8.850000381469727 -11.401000595092775 1.9999999999999998
    vertex 1.2499999999999998 -6.699000930786132 1.9999999999999998
    vertex 1.2499999999999998 -11.49699935913086 1.9999999999999998
  endloop
endfacet
facet normal 1.0 -0.0 -0.0
  outer loop
    vertex -19.948999404907227 -44.400001525878906 14.001000404357908
    vertex -19.948999404907227 -60.40100097656249 14.001000404357908
    vertex -19.948999404907227 -60.40100097656249 1.9999999999999998
  endloop
endfacet
facet normal -0.0 -0.0 1.0
  outer loop
    vertex -19.948999404907227 -60.40100097656249 14.001000404357908
    vertex -24.951000213623047 -44.400001525878906 14.001000404357908
    vertex -24.951000213623047 -60.40100097656249 14.001000404357908
  endloop
endfacet
facet normal -0.0 -0.0 1.0
  outer loop
    vertex -19.948999404907227 -44.400001525878906 14.001000404357908
    vertex -24.951000213623047 -44.400001525878906 14.001000404357908
    vertex -19.948999404907227 -60.40100097656249 14.001000404357908
  endloop
endfacet
facet normal -0.0 -0.0 1.0
  outer loop
    vertex -13.449000358581543 -27.399000167846676 12.001000404357908
    vertex -24.950000762939453 -32.40100097656249 12.001000404357908
    vertex -13.449000358581543 -32.40100097656249 12.001000404357908
  endloop
endfacet
facet normal -0.0 -0.0 1.0
  outer loop
    vertex -13.449000358581543 -27.399000167846676 12.001000404357908
    vertex -24.950000762939453 -27.399000167846676 12.001000404357908
    vertex -24.950000762939453 -32.40100097656249 12.001000404357908
  endloop
endfacet
facet normal -0.0 1.0 -0.0
  outer loop
    vertex 8.850000381469727 -27.60300064086914 1.9999999999999998
    vertex 8.850000381469727 -27.60300064086914 -0.0010000000474974513
    vertex -6.019071578979491 -27.60300064086914 -0.0010000000474974513
  endloop
endfacet
facet normal 0.0 -1.0 0.0
  outer loop
    vertex 8.850000381469727 -11.49699935913086 1.9999999999999998
    vertex 1.2499999999999998 -11.49699935913086 0.0
    vertex 8.850000381469727 -11.49699935913086 -0.0010000000474974513
  endloop
endfacet
facet normal 0.0 -1.0 0.0
  outer loop
    vertex 1.2499999999999998 -11.49699935913086 1.9999999999999998
    vertex 1.2499999999999998 -11.49699935913086 0.0
    vertex 8.850000381469727 -11.49699935913086 1.9999999999999998
  endloop
endfacet
facet normal -0.0 -0.0 1.0
  outer loop
    vertex 1.2499999999999998 -6.699000930786132 12.001000404357908
    vertex -24.95000076293945 -11.70099983215332 12.001000404357908
    vertex 1.2499999999999998 -11.70099983215332 12.001000404357908
  endloop
endfacet
facet normal -0.0 -0.0 1.0
  outer loop
    vertex 1.2499999999999998 -6.699000930786132 12.001000404357908
    vertex -24.95000076293945 -6.699000930786132 12.001000404357908
    vertex -24.95000076293945 -11.70099983215332 12.001000404357908
  endloop
endfacet
facet normal 0.0 -1.0 0.0
  outer loop
    vertex -19.948999404907227 -60.40100097656249 1.9999999999999998
    vertex 8.850000381469727 -60.40100097656249 0.0
    vertex 3.848999977111816 -60.40100097656249 1.9999999999999998
  endloop
endfacet
facet normal 0.0 -1.0 0.0
  outer loop
    vertex -13.425000190734863 -11.70099983215332 1.9999999999999998
    vertex -24.95000076293945 -11.70099983215332 -0.0010000000474974513
    vertex -13.425000190734863 -11.70099983215332 -0.0010000000474974513
  endloop
endfacet
facet normal 0.0 -1.0 0.0
  outer loop
    vertex 1.2499999999999998 -11.70099983215332 12.001000404357908
    vertex -9.401782035827637 -11.70099983215332 1.9999999999999998
    vertex -6.02077579498291 -11.70099983215332 0.0
  endloop
endfacet
facet normal 0.0 -1.0 0.0
  outer loop
    vertex 1.2499999999999998 -11.70099983215332 12.001000404357908
    vertex -6.02077579498291 -11.70099983215332 0.0
    vertex 1.2499999999999998 -11.70099983215332 0.0
  endloop
endfacet
facet normal 0.0 -1.0 0.0
  outer loop
    vertex -24.95000076293945 -11.70099983215332 12.001000404357908
    vertex -13.425000190734863 -11.70099983215332 1.9999999999999998
    vertex 1.2499999999999998 -11.70099983215332 12.001000404357908
  endloop
endfacet
facet normal 0.0 -1.0 0.0
  outer loop
    vertex -24.95000076293945 -11.70099983215332 12.001000404357908
    vertex -24.95000076293945 -11.70099983215332 -0.0010000000474974513
    vertex -13.425000190734863 -11.70099983215332 1.9999999999999998
  endloop
endfacet
facet normal 0.0 -1.0 0.0
  outer loop
    vertex 1.2499999999999998 -11.70099983215332 12.001000404357908
    vertex -13.425000190734863 -11.70099983215332 1.9999999999999998
    vertex -9.401782035827637 -11.70099983215332 1.9999999999999998
  endloop
endfacet
facet normal 0.0 -1.0 0.0
  outer loop
    vertex -6.02077579498291 -11.70099983215332 0.0
    vertex -13.425000190734863 -11.70099983215332 1.9999999999999998
    vertex -13.425000190734863 -11.70099983215332 -0.0010000000474974513
  endloop
endfacet
facet normal 0.0 -1.0 0.0
  outer loop
    vertex -13.425000190734863 -11.70099983215332 1.9999999999999998
    vertex -6.02077579498291 -11.70099983215332 0.0
    vertex -9.401782035827637 -11.70099983215332 1.9999999999999998
  endloop
endfacet
facet normal 0.00013505804050871915 -2.2098225510860006e-09 -0.9999999908796627
  outer loop
    vertex -6.020772457122802 -11.49699935913086 0.0
    vertex -6.02077579498291 -11.70099983215332 0.0
    vertex -13.425000190734863 -11.70099983215332 -0.0010000000474974513
  endloop
endfacet
facet normal -1.4017918477977322e-07 -0.9468211641557942 0.32176028826852954
  outer loop
    vertex -5.2776234642916915 -27.603000640869418 1.9999999999999998
    vertex -5.710790360901987 -28.283003234547362 -0.000989633521814529
    vertex -5.2776234642916915 -28.283003234863436 -0.0010000000474975677
  endloop
endfacet
facet normal -1.4017918477977322e-07 -0.9468211641557942 0.32176028826852954
  outer loop
    vertex -5.710790360901987 -28.283003234547362 -0.000989633521814529
    vertex -5.2776234642916915 -27.603000640869418 1.9999999999999998
    vertex -6.411588209174613 -28.283003234547362 -0.0009896335218145238
  endloop
endfacet
facet normal -1.4017918477977322e-07 -0.9468211641557942 0.32176028826852954
  outer loop
    vertex -6.411588209174613 -28.283003234547362 -0.0009896335218145238
    vertex -13.425000190734853 -27.603000640869418 1.9999999999999998
    vertex -13.425000190734853 -28.283003234863436 -0.0010000000474974513
  endloop
endfacet
facet normal -1.4017918477977322e-07 -0.9468211641557942 0.32176028826852954
  outer loop
    vertex -13.425000190734853 -27.603000640869418 1.9999999999999998
    vertex -6.411588209174613 -28.283003234547362 -0.0009896335218145238
    vertex -5.2776234642916915 -27.603000640869418 1.9999999999999998
  endloop
endfacet
facet normal -1.4017918477977322e-07 -0.9468211641557942 0.32176028826852954
  outer loop
    vertex -13.425000190734853 -27.603000640869418 1.9999999999999998
    vertex -5.2776234642916915 -27.603000640869418 1.9999999999999998
    vertex -8.235031547546377 -27.603000640869418 1.9999999999999998
  endloop
endfacet
facet normal 0.9920639356226977 0.11904805071552514 -0.04045626351552577
  outer loop
    vertex -13.449000358581543 -27.402999877929684 1.9999999999999998
    vertex -13.425000190734853 -27.603000640869418 1.9999999999999998
    vertex -13.425000190734853 -28.283003234863436 -0.0010000000474974513
  endloop
endfacet
facet normal -0.0 -0.0 1.0
  outer loop
    vertex -8.235031547546377 -27.603000640869418 1.9999999999999998
    vertex -13.449000358581543 -27.402999877929684 1.9999999999999998
    vertex -13.425000190734853 -27.603000640869418 1.9999999999999998
  endloop
endfacet
facet normal 0.9999874896383508 -0.005002056256097404 -0.0
  outer loop
    vertex -13.425000190734853 -27.603000640869418 1.9999999999999998
    vertex -13.449000358581543 -32.40100097656249 12.001000404357908
    vertex -13.449000358581543 -32.40100097656249 1.9999999999999998
  endloop
endfacet
facet normal 0.9911214012826225 0.11893494623514522 0.059437753016194944
  outer loop
    vertex -13.449000358581543 -27.402999877929684 1.9999999999999998
    vertex -13.449000358581543 -32.40100097656249 12.001000404357908
    vertex -13.425000190734853 -27.603000640869418 1.9999999999999998
  endloop
endfacet
facet normal 0.0700296886944477 0.9134505426426022 -0.4008789703230823
  outer loop
    vertex -13.449000358581543 -27.402999877929684 1.9999999999999998
    vertex -13.425000190734853 -28.283003234863436 -0.0010000000474974513
    vertex -24.950000762939453 -27.399000167846676 0.0
  endloop
endfacet
facet normal 0.0004173177211160563 0.9999998329505707 -0.00039993093222116897
  outer loop
    vertex -13.449000358581543 -27.399000167846676 12.001000404357908
    vertex -13.449000358581543 -27.402999877929684 1.9999999999999998
    vertex -24.950000762939453 -27.399000167846676 0.0
  endloop
endfacet
facet normal -8.676651279760715e-05 2.6533791185867785e-09 -0.9999999962357862
  outer loop
    vertex -24.950000762939453 -27.399000167846676 0.0
    vertex -24.951000213623047 -60.40100097656249 0.0
    vertex -24.951000213623047 -44.400001525878906 0.0
  endloop
endfacet
facet normal -8.676651279760715e-05 2.6533791185867785e-09 -0.9999999962357862
  outer loop
    vertex -24.951000213623047 -60.40100097656249 0.0
    vertex -24.950000762939453 -27.399000167846676 0.0
    vertex -13.425000190734853 -28.283003234863436 -0.0010000000474974513
  endloop
endfacet
facet normal -0.0 -0.0 1.0
  outer loop
    vertex 3.848999977111816 -44.400001525878906 1.9999999999999998
    vertex -5.2776234642916915 -27.603000640869418 1.9999999999999998
    vertex -8.235031547546377 -27.603000640869418 1.9999999999999998
  endloop
endfacet
facet normal -0.0 -0.0 1.0
  outer loop
    vertex -5.2776234642916915 -27.603000640869418 1.9999999999999998
    vertex 3.848999977111816 -44.400001525878906 1.9999999999999998
    vertex 8.850000381469727 -27.60300064086914 1.9999999999999998
  endloop
endfacet
facet normal -1.7243572536195335e-14 1.0 1.3054864223702417e-13
  outer loop
    vertex -8.235031547546377 -27.603000640869418 1.9999999999999998
    vertex 8.850000381469727 -27.60300064086914 1.9999999999999998
    vertex -6.019071578979491 -27.60300064086914 -0.0010000000474974513
  endloop
endfacet
facet normal -1.7243572536195335e-14 1.0 1.3054864223702417e-13
  outer loop
    vertex 8.850000381469727 -27.60300064086914 1.9999999999999998
    vertex -8.235031547546377 -27.603000640869418 1.9999999999999998
    vertex -5.2776234642916915 -27.603000640869418 1.9999999999999998
  endloop
endfacet
facet normal 1.4781002048527714e-06 -1.6098033588166625e-05 -0.9999999998693343
  outer loop
    vertex -6.019071578979491 -27.60300064086914 -0.0010000000474974513
    vertex -6.411588209174613 -28.283003234547362 -0.0009896335218145238
    vertex -13.425000190734853 -28.283003234863436 -0.0010000000474974513
  endloop
endfacet
endsolid servobase
