solid Untitled-58d8a214
facet normal -1.0 0.0 0.0
  outer loop
    vertex 3.848999977111816 -28.525001525878906 1.9999999999999998
    vertex 3.848999977111816 -44.52600097656249 1.9999999999999998
    vertex 3.848999977111816 -28.525001525878906 14.001000404357908
  endloop
endfacet
facet normal -1.0 0.0 0.0
  outer loop
    vertex 3.848999977111816 -28.525001525878906 14.001000404357908
    vertex 3.848999977111816 -44.52600097656249 1.9999999999999998
    vertex 3.848999977111816 -44.52600097656249 14.001000404357908
  endloop
endfacet
facet normal -1.0 0.0 0.0
  outer loop
    vertex 8.949999809265137 35.0000015258789 14.001000404357908
    vertex 8.949999809265137 30.099000549316408 1.9999999999999998
    vertex 8.949999809265137 30.099000549316408 14.001000404357908
  endloop
endfacet
facet normal -1.0 0.0 0.0
  outer loop
    vertex 8.949999809265137 35.0000015258789 1.9999999999999998
    vertex 8.949999809265137 30.099000549316408 1.9999999999999998
    vertex 8.949999809265137 35.0000015258789 14.001000404357908
  endloop
endfacet
facet normal 0.0 -1.0 0.0
  outer loop
    vertex 8.850000381469727 1.2989994049072238 1.9999999999999998
    vertex 8.850000381469727 1.2989994049072238 -0.0010000000474973917
    vertex 8.949999809265137 1.2989994049072238 1.9999999999999998
  endloop
endfacet
facet normal -1.0 0.0 0.0
  outer loop
    vertex 8.949999809265137 6.30100021362305 14.001000404357908
    vertex 8.949999809265137 1.2989994049072238 1.9999999999999998
    vertex 8.949999809265137 1.2989994049072238 14.001000404357908
  endloop
endfacet
facet normal -1.0 0.0 0.0
  outer loop
    vertex 8.949999809265137 6.30100021362305 1.9999999999999998
    vertex 8.949999809265137 1.2989994049072238 1.9999999999999998
    vertex 8.949999809265137 6.30100021362305 14.001000404357908
  endloop
endfacet
facet normal 1.0 -0.0 -0.0
  outer loop
    vertex 24.951000213623047 35.0000015258789 -0.0010000000474973917
    vertex 24.951000213623047 30.099000549316408 1.9999999999999998
    vertex 24.951000213623047 6.30100021362305 1.9999999999999998
  endloop
endfacet
facet normal 0.0 -1.0 0.0
  outer loop
    vertex 8.949999809265137 1.2989994049072238 1.9999999999999998
    vertex 8.850000381469727 1.2989994049072238 -0.0010000000474973917
    vertex 24.951000213623047 1.2989994049072238 -0.0010000000474973917
  endloop
endfacet
facet normal -0.0 1.0 -0.0
  outer loop
    vertex 8.949999809265137 35.0000015258789 1.9999999999999998
    vertex 8.048999786376951 35.0000015258789 -0.0010000000474973917
    vertex 8.048999786376951 35.0000015258789 1.9999999999999998
  endloop
endfacet
facet normal 0.0 0.0 -1.0
  outer loop
    vertex 24.951000213623047 1.2989994049072238 -0.0010000000474973917
    vertex 8.850000381469727 1.2989994049072238 -0.0010000000474973917
    vertex 24.951000213623047 35.0000015258789 -0.0010000000474973917
  endloop
endfacet
facet normal 0.0 0.0 -1.0
  outer loop
    vertex 24.951000213623047 35.0000015258789 -0.0010000000474973917
    vertex 8.850000381469727 1.2989994049072238 -0.0010000000474973917
    vertex 8.048999786376951 34.89999923706054 -0.0010000000474973917
  endloop
endfacet
facet normal 1.0 -0.0 -0.0
  outer loop
    vertex 24.951000213623047 35.0000015258789 14.001000404357908
    vertex 24.951000213623047 30.099000549316408 14.001000404357908
    vertex 24.951000213623047 30.099000549316408 1.9999999999999998
  endloop
endfacet
facet normal 1.0 -0.0 -0.0
  outer loop
    vertex 24.951000213623047 35.0000015258789 14.001000404357908
    vertex 24.951000213623047 30.099000549316408 1.9999999999999998
    vertex 24.951000213623047 35.0000015258789 -0.0010000000474973917
  endloop
endfacet
facet normal 1.0 -0.0 -0.0
  outer loop
    vertex 24.951000213623047 35.0000015258789 -0.0010000000474973917
    vertex 24.951000213623047 6.30100021362305 1.9999999999999998
    vertex 24.951000213623047 1.2989994049072238 -0.0010000000474973917
  endloop
endfacet
facet normal 1.0 -0.0 -0.0
  outer loop
    vertex 24.951000213623047 6.30100021362305 1.9999999999999998
    vertex 24.951000213623047 1.2989994049072238 14.001000404357908
    vertex 24.951000213623047 1.2989994049072238 -0.0010000000474973917
  endloop
endfacet
facet normal 1.0 -0.0 -0.0
  outer loop
    vertex 24.951000213623047 6.30100021362305 14.001000404357908
    vertex 24.951000213623047 1.2989994049072238 14.001000404357908
    vertex 24.951000213623047 6.30100021362305 1.9999999999999998
  endloop
endfacet
facet normal 0.0 0.0 -1.0
  outer loop
    vertex 24.951000213623047 35.0000015258789 -0.0010000000474973917
    vertex 8.048999786376951 34.89999923706054 -0.0010000000474973917
    vertex 8.048999786376951 35.0000015258789 -0.0010000000474973917
  endloop
endfacet
facet normal 1.0 -0.0 -0.0
  outer loop
    vertex -13.449000358581543 -11.527999877929686 1.9999999999999998
    vertex -13.449000358581543 -16.526000976562496 12.001000404357908
    vertex -13.449000358581543 -16.526000976562496 1.9999999999999998
  endloop
endfacet
facet normal 1.0 -0.0 -0.0
  outer loop
    vertex -13.449000358581543 -11.524000167846678 12.001000404357908
    vertex -13.449000358581543 -16.526000976562496 12.001000404357908
    vertex -13.449000358581543 -11.527999877929686 1.9999999999999998
  endloop
endfacet
facet normal -0.0 1.0 -0.0
  outer loop
    vertex 24.951000213623047 35.0000015258789 14.001000404357908
    vertex 24.951000213623047 35.0000015258789 -0.0010000000474973917
    vertex 8.949999809265137 35.0000015258789 1.9999999999999998
  endloop
endfacet
facet normal -0.0 1.0 -0.0
  outer loop
    vertex 8.949999809265137 35.0000015258789 1.9999999999999998
    vertex 24.951000213623047 35.0000015258789 -0.0010000000474973917
    vertex 8.048999786376951 35.0000015258789 -0.0010000000474973917
  endloop
endfacet
facet normal -0.0 1.0 -0.0
  outer loop
    vertex 24.951000213623047 35.0000015258789 14.001000404357908
    vertex 8.949999809265137 35.0000015258789 1.9999999999999998
    vertex 8.949999809265137 35.0000015258789 14.001000404357908
  endloop
endfacet
facet normal 0.0003752327390071059 0.999999866867262 -0.0003542115888772515
  outer loop
    vertex -24.950000762939453 -11.524000167846678 0.0
    vertex -13.449000358581543 -11.527999877929686 1.9999999999999998
    vertex -13.425000190734863 -11.527999877929686 -0.0010000000474974513
  endloop
endfacet
facet normal 0.0003752327390071059 0.999999866867262 -0.0003542115888772515
  outer loop
    vertex -13.449000358581543 -11.527999877929686 1.9999999999999998
    vertex -24.950000762939453 -11.524000167846678 0.0
    vertex -13.449000358581543 -11.524000167846678 12.001000404357908
  endloop
endfacet
facet normal -0.0 1.0 -0.0
  outer loop
    vertex -13.449000358581543 -11.524000167846678 12.001000404357908
    vertex -24.950000762939453 -11.524000167846678 0.0
    vertex -24.950000762939453 -11.524000167846678 12.001000404357908
  endloop
endfacet
facet normal -0.9999999991127135 3.050469319398568e-05 -2.9052311897201086e-05
  outer loop
    vertex -24.951000213623047 -28.525001525878906 14.001000404357908
    vertex -24.951000213623047 -28.525001525878906 0.0
    vertex -24.951000213623047 -44.52600097656249 0.0
  endloop
endfacet
facet normal -0.9999999991127135 3.050469319398568e-05 -2.9052311897201086e-05
  outer loop
    vertex -24.951000213623047 -28.525001525878906 0.0
    vertex -24.951000213623047 -28.525001525878906 14.001000404357908
    vertex -24.950000762939453 -28.525001525878906 1.9999999999999998
  endloop
endfacet
facet normal -1.0 0.0 0.0
  outer loop
    vertex -24.951000213623047 -28.525001525878906 14.001000404357908
    vertex -24.951000213623047 -44.52600097656249 0.0
    vertex -24.951000213623047 -44.52600097656249 14.001000404357908
  endloop
endfacet
facet normal -0.0 -0.0 1.0
  outer loop
    vertex 8.949999809265137 6.30100021362305 1.9999999999999998
    vertex 1.2499999999999998 6.000999069213867 1.9999999999999998
    vertex 8.850000381469727 1.2989994049072238 1.9999999999999998
  endloop
endfacet
facet normal -0.0 -0.0 1.0
  outer loop
    vertex 8.949999809265137 30.099000549316408 1.9999999999999998
    vertex 1.2499999999999998 6.000999069213867 1.9999999999999998
    vertex 8.949999809265137 6.30100021362305 1.9999999999999998
  endloop
endfacet
facet normal -0.0 -0.0 1.0
  outer loop
    vertex 8.949999809265137 6.30100021362305 1.9999999999999998
    vertex 8.850000381469727 1.2989994049072238 1.9999999999999998
    vertex 8.949999809265137 1.2989994049072238 1.9999999999999998
  endloop
endfacet
facet normal -0.0 -0.0 1.0
  outer loop
    vertex 8.949999809265137 30.099000549316408 1.9999999999999998
    vertex 8.048999786376951 34.89999923706054 1.9999999999999998
    vertex -24.950000762939453 34.89999923706054 1.9999999999999998
  endloop
endfacet
facet normal -0.0 -0.0 1.0
  outer loop
    vertex 8.949999809265137 35.0000015258789 1.9999999999999998
    vertex 8.048999786376951 34.89999923706054 1.9999999999999998
    vertex 8.949999809265137 30.099000549316408 1.9999999999999998
  endloop
endfacet
facet normal -0.0 -0.0 1.0
  outer loop
    vertex 8.949999809265137 35.0000015258789 1.9999999999999998
    vertex 8.048999786376951 35.0000015258789 1.9999999999999998
    vertex 8.048999786376951 34.89999923706054 1.9999999999999998
  endloop
endfacet
facet normal -0.9999999874633551 5.878775314554675e-05 0.0001470281943883054
  outer loop
    vertex -24.950000762939453 -11.524000167846678 0.0
    vertex -24.951000213623047 -28.525001525878906 0.0
    vertex -24.950000762939453 -16.526000976562496 1.9999999999999998
  endloop
endfacet
facet normal -1.0 0.0 0.0
  outer loop
    vertex 8.048999786376951 35.0000015258789 -0.0010000000474973917
    vertex 8.048999786376951 34.89999923706054 -0.0010000000474973917
    vertex 8.048999786376951 35.0000015258789 1.9999999999999998
  endloop
endfacet
facet normal -1.0 0.0 0.0
  outer loop
    vertex 8.048999786376951 35.0000015258789 1.9999999999999998
    vertex 8.048999786376951 34.89999923706054 -0.0010000000474973917
    vertex 8.048999786376951 34.89999923706054 1.9999999999999998
  endloop
endfacet
facet normal -8.107502347393202e-07 -3.0021677278608115e-05 -0.999999999549021
  outer loop
    vertex -6.019071578979491 -11.728000640869142 -0.0010000000474974513
    vertex -24.951000213623047 -44.52600097656249 0.0
    vertex -13.425000190734863 -11.527999877929686 -0.0010000000474974513
  endloop
endfacet
facet normal -8.67667153936092e-05 2.653383410664385e-09 -0.9999999962357686
  outer loop
    vertex -24.950000762939453 -11.524000167846678 0.0
    vertex -24.951000213623047 -44.52600097656249 0.0
    vertex -24.951000213623047 -28.525001525878906 0.0
  endloop
endfacet
facet normal -8.67667153936092e-05 2.653383410664385e-09 -0.9999999962357686
  outer loop
    vertex -24.951000213623047 -44.52600097656249 0.0
    vertex -24.950000762939453 -11.524000167846678 0.0
    vertex -13.425000190734863 -11.527999877929686 -0.0010000000474974513
  endloop
endfacet
facet normal 0.0 0.0 -1.0
  outer loop
    vertex -13.425000190734863 0.9990001678466801 -0.0010000000474973917
    vertex -24.950000762939453 0.9990001678466801 -0.0010000000474973917
    vertex -24.950000762939453 34.89999923706054 -0.0010000000474973917
  endloop
endfacet
facet normal 0.0 0.0 -1.0
  outer loop
    vertex 1.2499999999999998 0.9990001678466801 0.0
    vertex -6.02077579498291 0.9990001678466801 0.0
    vertex -6.020772457122802 1.2030006408691385 0.0
  endloop
endfacet
facet normal 0.0 0.0 -1.0
  outer loop
    vertex 1.2499999999999998 0.9990001678466801 0.0
    vertex -6.020772457122802 1.2030006408691385 0.0
    vertex 1.2499999999999998 1.2030006408691385 0.0
  endloop
endfacet
facet normal -1.0 0.0 0.0
  outer loop
    vertex -24.950000762939453 6.000999069213867 1.9999999999999998
    vertex -24.950000762939453 0.9990001678466801 -0.0010000000474973917
    vertex -24.950000762939453 0.9990001678466801 12.001000404357908
  endloop
endfacet
facet normal -1.0 0.0 0.0
  outer loop
    vertex -24.950000762939453 34.89999923706054 -0.0010000000474973917
    vertex -24.950000762939453 0.9990001678466801 -0.0010000000474973917
    vertex -24.950000762939453 6.000999069213867 1.9999999999999998
  endloop
endfacet
facet normal -0.0 -0.0 1.0
  outer loop
    vertex 24.951000213623047 30.099000549316408 14.001000404357908
    vertex 8.949999809265137 35.0000015258789 14.001000404357908
    vertex 8.949999809265137 30.099000549316408 14.001000404357908
  endloop
endfacet
facet normal -0.0 -0.0 1.0
  outer loop
    vertex 24.951000213623047 35.0000015258789 14.001000404357908
    vertex 8.949999809265137 35.0000015258789 14.001000404357908
    vertex 24.951000213623047 30.099000549316408 14.001000404357908
  endloop
endfacet
facet normal -1.0 0.0 0.0
  outer loop
    vertex -24.950000762939453 34.89999923706054 -0.0010000000474973917
    vertex -24.950000762939453 6.000999069213867 1.9999999999999998
    vertex -24.950000762939453 34.89999923706054 1.9999999999999998
  endloop
endfacet
facet normal -0.0 1.0 -0.0
  outer loop
    vertex 8.048999786376951 34.89999923706054 1.9999999999999998
    vertex -24.950000762939453 34.89999923706054 -0.0010000000474973917
    vertex -24.950000762939453 34.89999923706054 1.9999999999999998
  endloop
endfacet
facet normal -0.0 1.0 -0.0
  outer loop
    vertex 8.048999786376951 34.89999923706054 1.9999999999999998
    vertex 8.048999786376951 34.89999923706054 -0.0010000000474973917
    vertex -24.950000762939453 34.89999923706054 -0.0010000000474973917
  endloop
endfacet
facet normal -0.0 -0.0 1.0
  outer loop
    vertex 24.951000213623047 30.099000549316408 1.9999999999999998
    vertex 8.949999809265137 30.099000549316408 1.9999999999999998
    vertex 8.949999809265137 6.30100021362305 1.9999999999999998
  endloop
endfacet
facet normal -0.0 -0.0 1.0
  outer loop
    vertex 24.951000213623047 30.099000549316408 1.9999999999999998
    vertex 8.949999809265137 6.30100021362305 1.9999999999999998
    vertex 24.951000213623047 6.30100021362305 1.9999999999999998
  endloop
endfacet
facet normal -0.0 1.0 -0.0
  outer loop
    vertex 8.85099983215332 -28.525001525878906 14.001000404357908
    vertex 8.850000381469727 -28.525001525878906 1.9999999999999998
    vertex 3.848999977111816 -28.525001525878906 14.001000404357908
  endloop
endfacet
facet normal -0.0 1.0 -0.0
  outer loop
    vertex 3.848999977111816 -28.525001525878906 14.001000404357908
    vertex 8.850000381469727 -28.525001525878906 1.9999999999999998
    vertex 3.848999977111816 -28.525001525878906 1.9999999999999998
  endloop
endfacet
facet normal -4.30301226069737e-22 -3.048966512584497e-05 -0.9999999995351903
  outer loop
    vertex 8.850000381469727 -44.52600097656249 0.0
    vertex -24.951000213623047 -44.52600097656249 0.0
    vertex -6.019071578979491 -11.728000640869142 -0.0010000000474974513
  endloop
endfacet
facet normal 0.0001338046905788381 4.548830942522802e-05 -0.9999999900135593
  outer loop
    vertex -6.020772457122802 1.2030006408691385 0.0
    vertex -13.425000190734863 0.9990001678466801 -0.0010000000474973917
    vertex -24.950000762939453 34.89999923706054 -0.0010000000474973917
  endloop
endfacet
facet normal -4.277031179520381e-22 -2.9676234938327034e-05 -0.9999999995596607
  outer loop
    vertex 8.048999786376951 34.89999923706054 -0.0010000000474973917
    vertex -6.020772457122802 1.2030006408691385 0.0
    vertex -24.950000762939453 34.89999923706054 -0.0010000000474973917
  endloop
endfacet
facet normal -0.0 -0.0 1.0
  outer loop
    vertex -9.401768684387207 -11.728000640869142 1.9999999999999998
    vertex -13.449000358581543 -11.527999877929686 1.9999999999999998
    vertex -13.449000358581543 -16.526000976562496 1.9999999999999998
  endloop
endfacet
facet normal -0.0 -0.0 1.0
  outer loop
    vertex 8.850000381469727 -11.728000640869142 1.9999999999999998
    vertex -9.401768684387207 -11.728000640869142 1.9999999999999998
    vertex 3.848999977111816 -28.525001525878906 1.9999999999999998
  endloop
endfacet
facet normal 0.0 -1.0 0.0
  outer loop
    vertex 8.949999809265137 30.099000549316408 14.001000404357908
    vertex 8.949999809265137 30.099000549316408 1.9999999999999998
    vertex 24.951000213623047 30.099000549316408 1.9999999999999998
  endloop
endfacet
facet normal 0.0 -1.0 0.0
  outer loop
    vertex 8.949999809265137 30.099000549316408 14.001000404357908
    vertex 24.951000213623047 30.099000549316408 1.9999999999999998
    vertex 24.951000213623047 30.099000549316408 14.001000404357908
  endloop
endfacet
facet normal -0.0 -0.0 1.0
  outer loop
    vertex 1.2499999999999998 6.000999069213867 1.9999999999999998
    vertex -24.950000762939453 34.89999923706054 1.9999999999999998
    vertex -24.950000762939453 6.000999069213867 1.9999999999999998
  endloop
endfacet
facet normal -0.0 -0.0 1.0
  outer loop
    vertex 8.949999809265137 30.099000549316408 1.9999999999999998
    vertex -24.950000762939453 34.89999923706054 1.9999999999999998
    vertex 1.2499999999999998 6.000999069213867 1.9999999999999998
  endloop
endfacet
facet normal -0.9999998751373149 -1.4348161722209045e-20 0.0004997252793993831
  outer loop
    vertex -24.950000762939453 -16.526000976562496 1.9999999999999998
    vertex -24.951000213623047 -28.525001525878906 0.0
    vertex -24.950000762939453 -28.525001525878906 1.9999999999999998
  endloop
endfacet
facet normal 1.0669378573239303e-05 -3.073029101901086e-05 -0.9999999994709068
  outer loop
    vertex 8.850000381469727 -11.728000640869142 -0.0010000000474974513
    vertex 8.850000381469727 -44.52600097656249 0.0
    vertex -6.019071578979491 -11.728000640869142 -0.0010000000474974513
  endloop
endfacet
facet normal 1.0669378573239303e-05 -3.073029101901086e-05 -0.9999999994709068
  outer loop
    vertex 8.850000381469727 -44.52600097656249 0.0
    vertex 8.850000381469727 -11.728000640869142 -0.0010000000474974513
    vertex 8.850000381469727 -28.525001525878906 0.0
  endloop
endfacet
facet normal -0.0 1.0 -0.0
  outer loop
    vertex 1.2499999999999998 6.000999069213867 12.001000404357908
    vertex 1.2499999999999998 6.000999069213867 1.9999999999999998
    vertex -24.950000762939453 6.000999069213867 12.001000404357908
  endloop
endfacet
facet normal -0.0 1.0 -0.0
  outer loop
    vertex -24.950000762939453 6.000999069213867 12.001000404357908
    vertex 1.2499999999999998 6.000999069213867 1.9999999999999998
    vertex -24.950000762939453 6.000999069213867 1.9999999999999998
  endloop
endfacet
facet normal -1.0 0.0 0.0
  outer loop
    vertex -24.950000762939453 -11.524000167846678 12.001000404357908
    vertex -24.950000762939453 -16.526000976562496 1.9999999999999998
    vertex -24.950000762939453 -16.526000976562496 12.001000404357908
  endloop
endfacet
facet normal -1.0 0.0 0.0
  outer loop
    vertex -24.950000762939453 -11.524000167846678 0.0
    vertex -24.950000762939453 -16.526000976562496 1.9999999999999998
    vertex -24.950000762939453 -11.524000167846678 12.001000404357908
  endloop
endfacet
facet normal -0.0 -0.0 1.0
  outer loop
    vertex -13.449000358581543 -16.526000976562496 1.9999999999999998
    vertex -24.950000762939453 -16.526000976562496 1.9999999999999998
    vertex -19.948999404907227 -28.525001525878906 1.9999999999999998
  endloop
endfacet
facet normal -0.0 -0.0 1.0
  outer loop
    vertex -19.948999404907227 -28.525001525878906 1.9999999999999998
    vertex -24.950000762939453 -16.526000976562496 1.9999999999999998
    vertex -24.950000762939453 -28.525001525878906 1.9999999999999998
  endloop
endfacet
facet normal 0.0 -1.0 0.0
  outer loop
    vertex 3.848999977111816 -44.52600097656249 14.001000404357908
    vertex 3.848999977111816 -44.52600097656249 1.9999999999999998
    vertex 8.85099983215332 -44.52600097656249 14.001000404357908
  endloop
endfacet
facet normal 0.0 -1.0 0.0
  outer loop
    vertex 8.85099983215332 -44.52600097656249 14.001000404357908
    vertex 3.848999977111816 -44.52600097656249 1.9999999999999998
    vertex 8.850000381469727 -44.52600097656249 0.0
  endloop
endfacet
facet normal -0.0 -0.0 1.0
  outer loop
    vertex 3.848999977111816 -28.525001525878906 1.9999999999999998
    vertex -13.449000358581543 -16.526000976562496 1.9999999999999998
    vertex -19.948999404907227 -28.525001525878906 1.9999999999999998
  endloop
endfacet
facet normal -0.0 -0.0 1.0
  outer loop
    vertex 3.848999977111816 -28.525001525878906 1.9999999999999998
    vertex -19.948999404907227 -28.525001525878906 1.9999999999999998
    vertex 3.848999977111816 -44.52600097656249 1.9999999999999998
  endloop
endfacet
facet normal -1.0 0.0 0.0
  outer loop
    vertex -24.950000762939453 6.000999069213867 1.9999999999999998
    vertex -24.950000762939453 0.9990001678466801 12.001000404357908
    vertex -24.950000762939453 6.000999069213867 12.001000404357908
  endloop
endfacet
facet normal -0.0 1.0 -0.0
  outer loop
    vertex -19.948999404907227 -28.525001525878906 14.001000404357908
    vertex -19.948999404907227 -28.525001525878906 1.9999999999999998
    vertex -24.950000762939453 -28.525001525878906 1.9999999999999998
  endloop
endfacet
facet normal -0.0 1.0 -0.0
  outer loop
    vertex -19.948999404907227 -28.525001525878906 14.001000404357908
    vertex -24.950000762939453 -28.525001525878906 1.9999999999999998
    vertex -24.951000213623047 -28.525001525878906 14.001000404357908
  endloop
endfacet
facet normal -0.0 1.0 -0.0
  outer loop
    vertex 24.951000213623047 6.30100021362305 14.001000404357908
    vertex 24.951000213623047 6.30100021362305 1.9999999999999998
    vertex 8.949999809265137 6.30100021362305 14.001000404357908
  endloop
endfacet
facet normal -0.0 1.0 -0.0
  outer loop
    vertex 8.949999809265137 6.30100021362305 14.001000404357908
    vertex 24.951000213623047 6.30100021362305 1.9999999999999998
    vertex 8.949999809265137 6.30100021362305 1.9999999999999998
  endloop
endfacet
facet normal 0.9999999974521456 -0.0 -7.138423342497232e-05
  outer loop
    vertex 8.85099983215332 -28.525001525878906 14.001000404357908
    vertex 8.85099983215332 -44.52600097656249 14.001000404357908
    vertex 8.850000381469727 -44.52600097656249 0.0
  endloop
endfacet
facet normal 0.9999999971377935 4.357501928832114e-06 -7.553426711452692e-05
  outer loop
    vertex 8.850000381469727 -28.525001525878906 0.0
    vertex 8.85099983215332 -28.525001525878906 14.001000404357908
    vertex 8.850000381469727 -44.52600097656249 0.0
  endloop
endfacet
facet normal 0.9999999971377935 4.357501928832114e-06 -7.553426711452692e-05
  outer loop
    vertex 8.85099983215332 -28.525001525878906 14.001000404357908
    vertex 8.850000381469727 -28.525001525878906 0.0
    vertex 8.850000381469727 -28.525001525878906 1.9999999999999998
  endloop
endfacet
facet normal -0.0 -0.0 1.0
  outer loop
    vertex 3.848999977111816 -28.525001525878906 1.9999999999999998
    vertex -9.401768684387207 -11.728000640869142 1.9999999999999998
    vertex -13.449000358581543 -16.526000976562496 1.9999999999999998
  endloop
endfacet
facet normal -0.0 -0.0 1.0
  outer loop
    vertex 24.951000213623047 1.2989994049072238 14.001000404357908
    vertex 8.949999809265137 6.30100021362305 14.001000404357908
    vertex 8.949999809265137 1.2989994049072238 14.001000404357908
  endloop
endfacet
facet normal -0.0 -0.0 1.0
  outer loop
    vertex 24.951000213623047 6.30100021362305 14.001000404357908
    vertex 8.949999809265137 6.30100021362305 14.001000404357908
    vertex 24.951000213623047 1.2989994049072238 14.001000404357908
  endloop
endfacet
facet normal -0.0 -0.0 1.0
  outer loop
    vertex 3.848999977111816 -44.52600097656249 1.9999999999999998
    vertex -19.948999404907227 -28.525001525878906 1.9999999999999998
    vertex -19.948999404907227 -44.52600097656249 1.9999999999999998
  endloop
endfacet
facet normal -0.0 -0.0 1.0
  outer loop
    vertex 8.85099983215332 -44.52600097656249 14.001000404357908
    vertex 3.848999977111816 -28.525001525878906 14.001000404357908
    vertex 3.848999977111816 -44.52600097656249 14.001000404357908
  endloop
endfacet
facet normal -0.0 -0.0 1.0
  outer loop
    vertex 8.85099983215332 -28.525001525878906 14.001000404357908
    vertex 3.848999977111816 -28.525001525878906 14.001000404357908
    vertex 8.85099983215332 -44.52600097656249 14.001000404357908
  endloop
endfacet
facet normal -6.773110325868596e-05 -0.0016598375991736488 -0.9999986201748691
  outer loop
    vertex 8.850000381469727 1.2989994049072238 -0.0010000000474973917
    vertex 1.2499999999999998 1.2030006408691385 0.0
    vertex -6.020772457122802 1.2030006408691385 0.0
  endloop
endfacet
facet normal -6.773110325868596e-05 -0.0016598375991736488 -0.9999986201748691
  outer loop
    vertex 1.2499999999999998 1.2030006408691385 0.0
    vertex 8.850000381469727 1.2989994049072238 -0.0010000000474973917
    vertex 8.850000381469727 1.2030006408691385 -0.0010000000474973917
  endloop
endfacet
facet normal -6.723565674296019e-05 -1.6028035276208992e-06 -0.9999999977383989
  outer loop
    vertex 8.850000381469727 1.2989994049072238 -0.0010000000474973917
    vertex -6.020772457122802 1.2030006408691385 0.0
    vertex 8.048999786376951 34.89999923706054 -0.0010000000474973917
  endloop
endfacet
facet normal 0.0 -1.0 0.0
  outer loop
    vertex 24.951000213623047 1.2989994049072238 14.001000404357908
    vertex 8.949999809265137 1.2989994049072238 1.9999999999999998
    vertex 24.951000213623047 1.2989994049072238 -0.0010000000474973917
  endloop
endfacet
facet normal 0.0 -1.0 0.0
  outer loop
    vertex 8.949999809265137 1.2989994049072238 14.001000404357908
    vertex 8.949999809265137 1.2989994049072238 1.9999999999999998
    vertex 24.951000213623047 1.2989994049072238 14.001000404357908
  endloop
endfacet
facet normal 1.0 -0.0 -0.0
  outer loop
    vertex -19.948999404907227 -28.525001525878906 14.001000404357908
    vertex -19.948999404907227 -44.52600097656249 1.9999999999999998
    vertex -19.948999404907227 -28.525001525878906 1.9999999999999998
  endloop
endfacet
facet normal 0.0 -1.0 0.0
  outer loop
    vertex -19.948999404907227 -44.52600097656249 1.9999999999999998
    vertex -24.951000213623047 -44.52600097656249 0.0
    vertex 8.850000381469727 -44.52600097656249 0.0
  endloop
endfacet
facet normal 1.0 -0.0 -0.0
  outer loop
    vertex 8.850000381469727 -11.728000640869142 1.9999999999999998
    vertex 8.850000381469727 -28.525001525878906 1.9999999999999998
    vertex 8.850000381469727 -28.525001525878906 0.0
  endloop
endfacet
facet normal 1.0 -0.0 -0.0
  outer loop
    vertex 8.850000381469727 -11.728000640869142 1.9999999999999998
    vertex 8.850000381469727 -28.525001525878906 0.0
    vertex 8.850000381469727 -11.728000640869142 -0.0010000000474974513
  endloop
endfacet
facet normal 0.0 -1.0 0.0
  outer loop
    vertex -24.950000762939453 -16.526000976562496 12.001000404357908
    vertex -24.950000762939453 -16.526000976562496 1.9999999999999998
    vertex -13.449000358581543 -16.526000976562496 1.9999999999999998
  endloop
endfacet
facet normal 0.0 -1.0 0.0
  outer loop
    vertex -24.950000762939453 -16.526000976562496 12.001000404357908
    vertex -13.449000358581543 -16.526000976562496 1.9999999999999998
    vertex -13.449000358581543 -16.526000976562496 12.001000404357908
  endloop
endfacet
facet normal 1.0 -0.0 -0.0
  outer loop
    vertex 1.2499999999999998 6.000999069213867 12.001000404357908
    vertex 1.2499999999999998 1.2030006408691385 1.9999999999999998
    vertex 1.2499999999999998 6.000999069213867 1.9999999999999998
  endloop
endfacet
facet normal 1.0 -0.0 -0.0
  outer loop
    vertex 1.2499999999999998 6.000999069213867 12.001000404357908
    vertex 1.2499999999999998 0.9990001678466801 12.001000404357908
    vertex 1.2499999999999998 1.2030006408691385 1.9999999999999998
  endloop
endfacet
facet normal 1.0 -0.0 -0.0
  outer loop
    vertex 8.850000381469727 1.2989994049072238 1.9999999999999998
    vertex 8.850000381469727 1.2030006408691385 1.9999999999999998
    vertex 8.850000381469727 1.2030006408691385 -0.0010000000474973917
  endloop
endfacet
facet normal 1.0 -0.0 -0.0
  outer loop
    vertex 8.850000381469727 1.2989994049072238 1.9999999999999998
    vertex 8.850000381469727 1.2030006408691385 -0.0010000000474973917
    vertex 8.850000381469727 1.2989994049072238 -0.0010000000474973917
  endloop
endfacet
facet normal 1.0 -0.0 -0.0
  outer loop
    vertex 1.2499999999999998 1.2030006408691385 1.9999999999999998
    vertex 1.2499999999999998 0.9990001678466801 0.0
    vertex 1.2499999999999998 1.2030006408691385 0.0
  endloop
endfacet
facet normal 1.0 -0.0 -0.0
  outer loop
    vertex 1.2499999999999998 1.2030006408691385 1.9999999999999998
    vertex 1.2499999999999998 0.9990001678466801 12.001000404357908
    vertex 1.2499999999999998 0.9990001678466801 0.0
  endloop
endfacet
facet normal -0.0 -0.0 1.0
  outer loop
    vertex 8.850000381469727 -11.728000640869142 1.9999999999999998
    vertex 3.848999977111816 -28.525001525878906 1.9999999999999998
    vertex 8.850000381469727 -28.525001525878906 1.9999999999999998
  endloop
endfacet
facet normal 0.0 -1.0 0.0
  outer loop
    vertex -24.951000213623047 -44.52600097656249 14.001000404357908
    vertex -24.951000213623047 -44.52600097656249 0.0
    vertex -19.948999404907227 -44.52600097656249 1.9999999999999998
  endloop
endfacet
facet normal 0.0 -1.0 0.0
  outer loop
    vertex -24.951000213623047 -44.52600097656249 14.001000404357908
    vertex -19.948999404907227 -44.52600097656249 1.9999999999999998
    vertex -19.948999404907227 -44.52600097656249 14.001000404357908
  endloop
endfacet
facet normal 0.0 -1.0 0.0
  outer loop
    vertex 1.2499999999999998 0.9990001678466801 12.001000404357908
    vertex -13.425000190734863 0.9990001678466801 1.9999999999999998
    vertex -9.401782035827637 0.9990001678466801 1.9999999999999998
  endloop
endfacet
facet normal 0.0 -1.0 0.0
  outer loop
    vertex -24.950000762939453 0.9990001678466801 12.001000404357908
    vertex -13.425000190734863 0.9990001678466801 1.9999999999999998
    vertex 1.2499999999999998 0.9990001678466801 12.001000404357908
  endloop
endfacet
facet normal -0.0 -0.0 1.0
  outer loop
    vertex 8.850000381469727 1.2989994049072238 1.9999999999999998
    vertex 1.2499999999999998 1.2030006408691385 1.9999999999999998
    vertex 8.850000381469727 1.2030006408691385 1.9999999999999998
  endloop
endfacet
facet normal -0.0 -0.0 1.0
  outer loop
    vertex 8.850000381469727 1.2989994049072238 1.9999999999999998
    vertex 1.2499999999999998 6.000999069213867 1.9999999999999998
    vertex 1.2499999999999998 1.2030006408691385 1.9999999999999998
  endloop
endfacet
facet normal -0.0 1.0 -0.0
  outer loop
    vertex 8.850000381469727 -11.728000640869142 1.9999999999999998
    vertex -6.019071578979491 -11.728000640869142 -0.0010000000474974513
    vertex -9.401768684387207 -11.728000640869142 1.9999999999999998
  endloop
endfacet
facet normal 0.0 -1.0 0.0
  outer loop
    vertex 1.2499999999999998 0.9990001678466801 12.001000404357908
    vertex -9.401782035827637 0.9990001678466801 1.9999999999999998
    vertex -6.02077579498291 0.9990001678466801 0.0
  endloop
endfacet
facet normal 0.0 -1.0 0.0
  outer loop
    vertex 1.2499999999999998 0.9990001678466801 12.001000404357908
    vertex -6.02077579498291 0.9990001678466801 0.0
    vertex 1.2499999999999998 0.9990001678466801 0.0
  endloop
endfacet
facet normal 1.0 -0.0 -0.0
  outer loop
    vertex -19.948999404907227 -28.525001525878906 14.001000404357908
    vertex -19.948999404907227 -44.52600097656249 14.001000404357908
    vertex -19.948999404907227 -44.52600097656249 1.9999999999999998
  endloop
endfacet
facet normal -0.0 -0.0 1.0
  outer loop
    vertex -19.948999404907227 -44.52600097656249 14.001000404357908
    vertex -24.951000213623047 -28.525001525878906 14.001000404357908
    vertex -24.951000213623047 -44.52600097656249 14.001000404357908
  endloop
endfacet
facet normal -0.0 -0.0 1.0
  outer loop
    vertex -19.948999404907227 -28.525001525878906 14.001000404357908
    vertex -24.951000213623047 -28.525001525878906 14.001000404357908
    vertex -19.948999404907227 -44.52600097656249 14.001000404357908
  endloop
endfacet
facet normal -0.0 -0.0 1.0
  outer loop
    vertex -13.449000358581543 -11.524000167846678 12.001000404357908
    vertex -24.950000762939453 -16.526000976562496 12.001000404357908
    vertex -13.449000358581543 -16.526000976562496 12.001000404357908
  endloop
endfacet
facet normal -0.0 -0.0 1.0
  outer loop
    vertex -13.449000358581543 -11.524000167846678 12.001000404357908
    vertex -24.950000762939453 -11.524000167846678 12.001000404357908
    vertex -24.950000762939453 -16.526000976562496 12.001000404357908
  endloop
endfacet
facet normal 0.0 -1.0 0.0
  outer loop
    vertex -13.425000190734863 0.9990001678466801 1.9999999999999998
    vertex -24.950000762939453 0.9990001678466801 -0.0010000000474973917
    vertex -13.425000190734863 0.9990001678466801 -0.0010000000474973917
  endloop
endfacet
facet normal 0.0 -1.0 0.0
  outer loop
    vertex -24.950000762939453 0.9990001678466801 12.001000404357908
    vertex -24.950000762939453 0.9990001678466801 -0.0010000000474973917
    vertex -13.425000190734863 0.9990001678466801 1.9999999999999998
  endloop
endfacet
facet normal -0.0 1.0 -0.0
  outer loop
    vertex 8.850000381469727 -11.728000640869142 1.9999999999999998
    vertex 8.850000381469727 -11.728000640869142 -0.0010000000474974513
    vertex -6.019071578979491 -11.728000640869142 -0.0010000000474974513
  endloop
endfacet
facet normal 0.0 -1.0 0.0
  outer loop
    vertex 8.850000381469727 1.2030006408691385 1.9999999999999998
    vertex 1.2499999999999998 1.2030006408691385 0.0
    vertex 8.850000381469727 1.2030006408691385 -0.0010000000474973917
  endloop
endfacet
facet normal 0.0 -1.0 0.0
  outer loop
    vertex 1.2499999999999998 1.2030006408691385 1.9999999999999998
    vertex 1.2499999999999998 1.2030006408691385 0.0
    vertex 8.850000381469727 1.2030006408691385 1.9999999999999998
  endloop
endfacet
facet normal -0.0 -0.0 1.0
  outer loop
    vertex 1.2499999999999998 6.000999069213867 12.001000404357908
    vertex -24.950000762939453 0.9990001678466801 12.001000404357908
    vertex 1.2499999999999998 0.9990001678466801 12.001000404357908
  endloop
endfacet
facet normal -0.0 -0.0 1.0
  outer loop
    vertex 1.2499999999999998 6.000999069213867 12.001000404357908
    vertex -24.950000762939453 6.000999069213867 12.001000404357908
    vertex -24.950000762939453 0.9990001678466801 12.001000404357908
  endloop
endfacet
facet normal 0.0 -1.0 0.0
  outer loop
    vertex -19.948999404907227 -44.52600097656249 1.9999999999999998
    vertex 8.850000381469727 -44.52600097656249 0.0
    vertex 3.848999977111816 -44.52600097656249 1.9999999999999998
  endloop
endfacet
facet normal 0.04935644622884374 0.9987810524678681 0.0005919855041377927
  outer loop
    vertex -9.401768684387207 -11.728000640869142 1.9999999999999998
    vertex -13.425000190734863 -11.527999877929686 -0.0010000000474974513
    vertex -13.449000358581543 -11.527999877929686 1.9999999999999998
  endloop
endfacet
facet normal 0.02696758454388288 0.9985962204750872 0.04558879069178667
  outer loop
    vertex -9.401768684387207 -11.728000640869142 1.9999999999999998
    vertex -6.019071578979491 -11.728000640869142 -0.0010000000474974513
    vertex -13.425000190734863 -11.527999877929686 -0.0010000000474974513
  endloop
endfacet
facet normal 0.0 -1.0 0.0
  outer loop
    vertex -13.425000190734863 0.9990001678466801 1.9999999999999998
    vertex -6.02077579498291 0.9990001678466801 0.0
    vertex -9.401782035827637 0.9990001678466801 1.9999999999999998
  endloop
endfacet
facet normal 0.0 -1.0 0.0
  outer loop
    vertex -13.425000190734863 0.9990001678466801 1.9999999999999998
    vertex -13.425000190734863 0.9990001678466801 -0.0010000000474973917
    vertex -6.02077579498291 0.9990001678466801 0.0
  endloop
endfacet
facet normal 0.0001350580405087111 -2.2098225501805492e-09 -0.999999990879663
  outer loop
    vertex -6.020772457122802 1.2030006408691385 0.0
    vertex -6.02077579498291 0.9990001678466801 0.0
    vertex -13.425000190734863 0.9990001678466801 -0.0010000000474973917
  endloop
endfacet
endsolid Untitled-58d8a214
